# AST/ASF file generated using VICON BodyLanguage
# -----------------------------------------------
:version 1.10
:name VICON
:units
  mass 1.0
  length 0.45
  angle deg
:documentation
   .ast/.asf automatically generated from VICON data using
   VICON BodyBuilder and BodyLanguage model FoxedUp or BRILLIANT.MOD
:root
   order TX TY TZ RX RY RZ
   axis XYZ
   position 0 0 0  
   orientation 0 0 0 
:bonedata
  begin
     id 1 
     name lhipjoint
     direction 0.635376 -0.686425 0.353719 
     length 2.47244 
     axis 0 0 0  XYZ
  end
  begin
     id 2 
     name lfemur
     direction 0.34202 -0.939693 0  
     length 7.25268  
     axis 0 0 20  XYZ
    dof rx ry rz
    limits (-160.0 20.0)
           (-70.0 70.0)
           (-60.0 70.0)
  end
  begin
     id 3 
     name ltibia
     direction 0.34202 -0.939693 0   
     length 7.6767   
     axis 0 0 20   XYZ
    dof rx
    limits (-10.0 170.0)
  end
  begin
     id 4 
     name lfoot
     direction 0.0803374 -0.220725 0.972022   
     length 2.22945   
     axis -90 7.62852e-016 20   XYZ
    dof rx rz
    limits (-45.0 90.0)
           (-70.0 20.0)
  end
  begin
     id 5 
     name ltoes
     direction 1.53579e-011 -4.21994e-011 1   
     length 1.11848   
     axis -90 7.62852e-016 20   XYZ
    dof rx
    limits (-90.0 20.0)
  end
  begin
     id 6 
     name rhipjoint
     direction -0.664428 -0.664335 0.342336   
     length 2.55466  
     axis 0 0 0  XYZ 
  end
  begin
     id 7 
     name rfemur
     direction -0.34202 -0.939693 0   
     length 6.83172   
     axis 0 0 -20   XYZ
    dof rx ry rz
    limits (-160.0 20.0)
           (-70.0 70.0)
           (-70.0 60.0)
  end
  begin
     id 8 
     name rtibia
     direction -0.34202 -0.939693 0   
     length 7.62692   
     axis 0 0 -20   XYZ
    dof rx
    limits (-10.0 170.0)
 end
 begin
     id 9 
     name rfoot
     direction -0.0949276 -0.260811 0.960711   
     length 2.19684  
     axis -90 -7.62852e-016 -20   XYZ
    dof rx rz
    limits (-45.0 90.0)
           (-20.0 70.0)
  end
  begin
     id 10 
     name rtoes
     direction -1.53543e-011 -4.2183e-011 1   
     length 1.09848   
     axis -90 -7.62852e-016 -20   XYZ
    dof rx
    limits (-90.0 20.0)
  end
  begin
     id 11 
     name lowerback
     direction 0.0118782 0.999815 -0.0151555   
     length 2.15772   
     axis 0 0 0   XYZ
    dof rx ry rz
    limits (-20.0 45.0)
           (-30.0 30.0)
           (-30.0 30.0)
  end
  begin
     id 12 
     name upperback
     direction 0.00130825 0.999065 0.0432113   
     length 2.14863   
     axis 0 0 0   XYZ
    dof rx ry rz
    limits (-20.0 45.0)
           (-30.0 30.0)
           (-30.0 30.0)
  end
  begin
     id 13 
     name thorax
     direction -0.00347005 0.998773 0.0494011   
     length 2.14936   
     axis 0 0 0   XYZ
    dof rx ry rz
    limits (-20.0 45.0)
           (-30.0 30.0)
           (-30.0 30.0)
  end
  begin
     id 14 
     name lowerneck
     direction -0.0262159 0.99424 0.103921   
     length 1.69373   
     axis 0 0 0   XYZ
    dof rx ry rz
    limits (-20.0 45.0)
           (-30.0 30.0)
           (-30.0 30.0)
  end
  begin
     id 15 
     name upperneck
     direction 0.0353511 0.977394 -0.20845   
     length 1.70857   
     axis 0 0 0   XYZ
    dof rx ry rz
    limits (-20.0 45.0)
           (-30.0 30.0)
           (-30.0 30.0)
  end
  begin
     id 16
     name head
     direction 0.0139214 0.996594 -0.0812836  
     length 1.72777  
     axis 0 0 0   XYZ
    dof rx ry rz
    limits (-20.0 45.0)
           (-30.0 30.0)
           (-30.0 30.0)
  end
  begin
     id 17 
     name lclavicle
     direction 0.841247 0.537205 -0.0609508  
     length 3.55371  
     axis 0 0 0   XYZ
    dof ry rz
    limits (-20.0 10.0)
           (0.0 20.0)
  end
  begin
     id 18 
     name lhumerus
     direction 1 -4.48964e-011 1.60116e-018   
     length 4.91377   
     axis -180 -30 -90   XYZ
    dof rx ry rz
    limits (-60.0 90.0)
           (-90.0 90.0)
           (-90.0 90.0)
  end
  begin
     id 19
     name lradius
     direction 1 -4.48989e-011 -8.93847e-027   
     length 3.00291   
     axis -180 -30 -90   XYZ
    dof rx
    limits (-10.0 170.0)
  end
  begin
     id 20
     name lwrist
     direction 1 -4.48932e-011 -7.31504e-027   
     length 1.50145   
     axis 5.74121e-015 90 90   XYZ
    dof ry
    limits (-180.0 0.0)
 end
  begin
     id 21 
     name lhand
     direction 1 -4.48971e-011 -1.46301e-026   
     length 0.450922   
     axis 9.33524e-015 90 90   XYZ
    dof rx rz
    limits (-90.0 90.0)
           (-45.0 45.0)
  end
  begin
     id 22 
     name lfingers
     direction 1 -4.49039e-011 -2.92602e-026   
     length 0.363545   
     axis 1.86705e-014 90 90   XYZ
    dof rx
    limits (0.0 90.0)
  end
  begin
     id 23
     name lthumb
     direction 0.707107 -6.34941e-011 0.707107   
     length 0.52198   
     axis -90 45 2.85299e-015   XYZ
    dof rx rz
    limits (-45.0 45.0)
           (-45.0 45.0)
  end
  begin
     id 24 
     name rclavicle
     direction -0.825079 0.56158 -0.0622297   
     length 3.39909  
     axis 0 0 0   XYZ 
    dof ry rz
    limits (-10.0 20.0)
           (-20.0 0.0)
  end
  begin
     id 25 
     name rhumerus
     direction -1 -4.48965e-011 1.61691e-027  
     length 4.86725   
     axis -180 30 90   XYZ
    dof rx ry rz
    limits (-90.0 60.0)
           (-90.0 90.0)
           (-90.0 90.0)
  end
  begin
     id 26 
     name rradius
     direction -1 -4.48964e-011 -2.25776e-027   
     length 3.17144   
     axis -180 30 90   XYZ
    dof rx
    limits (-10.0 170.0)
  end
  begin
     id 27 
     name rwrist
     direction -1 -4.48961e-011 -7.31504e-027   
     length 1.58572   
     axis 5.74121e-015 -90 -90   XYZ
    dof ry
    limits (-180.0 0.0)
  end
  begin
     id 28
     name rhand
     direction -1 -4.49013e-011 -1.46301e-026   
     length 0.419368   
     axis 9.33524e-015 -90 -90   XYZ
    dof rx rz
    limits (-90.0 90.0)
           (-45.0 45.0)
  end
  begin
     id 29
     name rfingers
     direction -1 -4.489e-011 -2.92602e-026   
     length 0.338105   
     axis 1.86705e-014 -90 -90   XYZ
    dof rx
    limits (0.0 90.0)
  end
  begin
     id 30
     name rthumb
     direction -0.707107 -6.35022e-011 0.707107   
     length 0.485453   
     axis -90 -45 -2.85299e-015   XYZ
    dof rx rz
    limits (-45.0 45.0)
           (-45.0 45.0)
  end
:hierarchy
  begin
    root lhipjoint rhipjoint lowerback
    lhipjoint lfemur
    lfemur ltibia
    ltibia lfoot
    lfoot ltoes
    rhipjoint rfemur
    rfemur rtibia
    rtibia rfoot
    rfoot rtoes
    lowerback upperback
    upperback thorax
    thorax lowerneck lclavicle rclavicle
    lowerneck upperneck
    upperneck head
    lclavicle lhumerus
    lhumerus lradius
    lradius lwrist
    lwrist lhand lthumb
    lhand lfingers
    rclavicle rhumerus
    rhumerus rradius
    rradius rwrist
    rwrist rhand rthumb
    rhand rfingers
  end

#!OML:ASF H:\Swim 2\Project 1\Capture day 1\Session 1\male.ASF
:FULLY-SPECIFIED
:DEGREES
529
root 1.6981 14.5582 8.93303 110.031 -3.42543 -4.69784
lowerback -20.4964 2.29345 0.25965
upperback -5.90873 2.69943 5.52011
thorax 4.75534 1.37665 6.47045
lowerneck -15.798 1.75625 0.222294
upperneck 29.8622 2.75387 -1.52937
head 12.5532 0.999298 -0.211183
rclavicle -2.78299e-014 -4.57826e-014
rhumerus 94.6184 -26.0432 -18.5642
rradius 35.5867
rwrist -13.6565
rhand -19.3451 -2.11863
rfingers 7.12502
rthumb 6.97206 -31.9838
lclavicle -2.78299e-014 -4.57826e-014
lhumerus -62.5575 -45.2842 77.6646
lradius 86.8222
lwrist 45.3224
lhand -44.7684 -3.67353
lfingers 7.12502
lthumb -17.5608 25.5534
rfemur -44.0117 2.15727 18.9378
rtibia 22.6992
rfoot 12.3464 -10.7924
rtoes 22.1141
lfemur -35.0426 7.81839 -29.4202
ltibia 55.575
lfoot 6.6871 -2.37282
ltoes 1.5735
530
root 1.7281 14.565 8.93277 109.92 -3.21034 -4.31948
lowerback -20.5235 2.40075 0.250189
upperback -5.84177 2.83724 5.67438
thorax 4.81725 1.44584 6.68441
lowerneck -15.5759 1.64252 0.122289
upperneck 29.8111 2.61665 -1.50737
head 12.4823 0.93624 -0.207496
rclavicle 3.81667e-014 3.67503e-014
rhumerus 94.478 -25.736 -18.5939
rradius 35.5627
rwrist -13.4756
rhand -19.9357 -2.33416
rfingers 7.12502
rthumb 6.40189 -32.2174
lclavicle 3.81667e-014 3.67503e-014
lhumerus -66.2701 -44.096 80.2508
lradius 87.8114
lwrist 45.5211
lhand -45.9581 -5.66055
lfingers 7.12502
lthumb -18.7054 23.4601
rfemur -43.675 1.5584 19.2758
rtibia 24.1159
rfoot 13.2789 -9.89279
rtoes 22.2978
lfemur -35.2367 7.30377 -29.2881
ltibia 56.6326
lfoot 7.05505 -3.30744
ltoes 1.78072
531
root 1.75713 14.5717 8.93102 109.835 -2.98943 -3.94557
lowerback -20.5912 2.50461 0.235342
upperback -5.78032 2.97049 5.82344
thorax 4.89388 1.5123 6.898
lowerneck -15.4296 1.52823 0.0167835
upperneck 29.8271 2.47853 -1.47482
head 12.4547 0.872215 -0.198122
rclavicle -6.44062e-014 -1.40988e-013
rhumerus 94.3578 -25.4311 -18.6344
rradius 35.4303
rwrist -13.1339
rhand -20.4973 -2.4753
rfingers 7.12502
rthumb 5.85972 -32.3743
lclavicle -6.44062e-014 -1.40988e-013
lhumerus -69.7103 -42.8003 82.5803
lradius 88.6029
lwrist 45.773
lhand -47.1213 -7.93897
lfingers 7.12502
lthumb -19.8239 21.0701
rfemur -43.3324 0.999336 19.5739
rtibia 25.5834
rfoot 14.2116 -8.97721
rtoes 22.4498
lfemur -35.5013 6.78758 -29.1537
ltibia 57.5113
lfoot 7.36894 -4.16172
ltoes 1.86559
532
root 1.78512 14.5785 8.9278 109.787 -2.76546 -3.58965
lowerback -20.7033 2.60975 0.215328
upperback -5.72703 3.10586 5.96247
thorax 4.98398 1.57944 7.10778
lowerneck -15.3297 1.41597 -0.0825494
upperneck 29.8663 2.34358 -1.44629
head 12.4465 0.809195 -0.19035
rclavicle -5.24792e-014 -6.7065e-014
rhumerus 94.2671 -25.1265 -18.698
rradius 35.189
rwrist -12.689
rhand -21.0181 -2.55182
rfingers 7.12502
rthumb 5.35685 -32.4641
lclavicle -5.24792e-014 -6.7065e-014
lhumerus -72.8866 -41.4374 84.6667
lradius 89.1954
lwrist 46.0019
lhand -48.2564 -10.4329
lfingers 7.12502
lthumb -20.9147 18.4596
rfemur -42.9956 0.489017 19.83
rtibia 27.0803
rfoot 15.1355 -8.0872
rtoes 22.5704
lfemur -35.8412 6.28272 -29.0229
ltibia 58.1856
lfoot 7.61233 -4.90168
ltoes 1.85615
533
root 1.81206 14.5854 8.92309 109.784 -2.54109 -3.26467
lowerback -20.8615 2.72093 0.191218
upperback -5.6839 3.25002 6.08591
thorax 5.08568 1.65074 7.30884
lowerneck -15.2517 1.30627 -0.157893
upperneck 29.8912 2.21297 -1.44136
head 12.4382 0.747791 -0.194744
rclavicle 4.6118e-014 1.08089e-013
rhumerus 94.2046 -24.8222 -18.795
rradius 34.857
rwrist -12.2063
rhand -21.4861 -2.59471
rfingers 7.12502
rthumb 4.90502 -32.5179
lclavicle 4.6118e-014 1.08089e-013
lhumerus -75.8153 -40.0446 86.5335
lradius 89.589
lwrist 46.1337
lhand -49.3579 -13.0749
lfingers 7.12502
lthumb -21.9727 15.6972
rfemur -42.6759 0.0317613 20.0448
rtibia 28.5902
rfoot 16.0426 -7.25626
rtoes 22.661
lfemur -36.2591 5.7988 -28.9007
ltibia 58.6373
lfoot 7.76776 -5.49418
ltoes 1.77656
